<svg xmlns="http://www.w3.org/2000/svg" version="1.1" xmlns:xlink="http://www.w3.org/1999/xlink" xmlns:svgjs="http://svgjs.dev/svgjs" width="1500" height="1500" viewBox="0 0 1500 1500"><rect width="1500" height="1500" fill="#ffffff"></rect><g transform="matrix(0.6666666666666666,0,0,0.6666666666666666,250.5670439523007,281.04669365722003)"><svg viewBox="0 0 263 247" data-background-color="#ffffff" preserveAspectRatio="xMidYMid meet" height="1408" width="1500" xmlns="http://www.w3.org/2000/svg" xmlns:xlink="http://www.w3.org/1999/xlink"><g id="tight-bounds" transform="matrix(1,0,0,1,-0.14913255945506876,-0.09999999999999432)"><svg viewBox="0 0 263.29826511891014 247.2" height="247.2" width="263.29826511891014"><g><svg viewBox="0 0 395.52 371.3375929607595" height="247.2" width="263.29826511891014"><g transform="matrix(1,0,0,1,0,225.66377559205227)"><svg viewBox="0 0 395.52 145.67381736870718" height="145.67381736870718" width="395.52"><g id="textblocktransform"><svg viewBox="0 0 395.52 145.67381736870718" height="145.67381736870718" width="395.52" id="textblock"><g><svg viewBox="0 0 395.52 103.11323467230444" height="103.11323467230444" width="395.52"><g transform="matrix(1,0,0,1,0,0)"><svg width="395.52" viewBox="2.49 -38.01 184.75 48.17" height="103.11323467230444" data-palette-color="#1e55b3"><path d="M31.98-18.82L31.98-16.85Q31.98-11.62 30.18-7.68 28.37-3.74 25.01-1.62 21.66 0.49 17.29 0.49L17.29 0.49Q12.96 0.49 9.58-1.62 6.2-3.74 4.36-7.64 2.51-11.55 2.49-16.65L2.49-16.65 2.49-18.65Q2.49-23.85 4.33-27.83 6.18-31.81 9.53-33.92 12.89-36.04 17.24-36.04 21.58-36.04 24.94-33.95 28.3-31.86 30.13-27.94 31.96-24.02 31.98-18.82L31.98-18.82ZM25.81-16.85L25.81-18.7Q25.81-24.61 23.57-27.76 21.34-30.91 17.24-30.91L17.24-30.91Q13.23-30.91 10.97-27.77 8.72-24.63 8.67-18.9L8.67-18.9 8.67-16.85Q8.67-10.99 10.95-7.79 13.23-4.59 17.29-4.59L17.29-4.59Q21.39-4.59 23.6-7.71 25.81-10.84 25.81-16.85L25.81-16.85ZM60.69-13.31L60.69-12.94Q60.69-6.81 57.91-3.16 55.12 0.49 50.44 0.49L50.44 0.49Q46.09 0.49 43.48-2.37L43.48-2.37 43.48 10.16 37.55 10.16 37.55-26.42 43.02-26.42 43.26-23.73Q45.87-26.9 50.36-26.9L50.36-26.9Q55.2-26.9 57.94-23.3 60.69-19.7 60.69-13.31L60.69-13.31ZM54.78-13.45L54.78-13.45Q54.78-17.41 53.21-19.73 51.63-22.05 48.7-22.05L48.7-22.05Q45.07-22.05 43.48-19.04L43.48-19.04 43.48-7.32Q45.09-4.25 48.75-4.25L48.75-4.25Q51.58-4.25 53.18-6.53 54.78-8.81 54.78-13.45ZM67.21-32.84L73.14-32.84 73.14-26.42 77.8-26.42 77.8-22.02 73.14-22.02 73.14-7.28Q73.14-5.76 73.74-5.09 74.34-4.42 75.87-4.42L75.87-4.42Q76.9-4.42 77.95-4.66L77.95-4.66 77.95-0.07Q75.92 0.49 74.04 0.49L74.04 0.49Q67.21 0.49 67.21-7.06L67.21-7.06 67.21-22.02 62.86-22.02 62.86-26.42 67.21-26.42 67.21-32.84ZM88.64-26.42L88.64 0 82.71 0 82.71-26.42 88.64-26.42ZM82.34-33.28L82.34-33.28Q82.34-34.64 83.21-35.55 84.07-36.45 85.69-36.45 87.3-36.45 88.18-35.55 89.06-34.64 89.06-33.28L89.06-33.28Q89.06-31.93 88.18-31.04 87.3-30.15 85.69-30.15 84.07-30.15 83.21-31.04 82.34-31.93 82.34-33.28ZM103.12 0L97.18 0 97.18-22.02 93.15-22.02 93.15-26.42 97.18-26.42 97.18-28.83Q97.18-33.23 99.62-35.62 102.07-38.01 106.46-38.01L106.46-38.01Q108.02-38.01 109.78-37.57L109.78-37.57 109.63-32.93Q108.66-33.13 107.36-33.13L107.36-33.13Q103.12-33.13 103.12-28.76L103.12-28.76 103.12-26.42 108.49-26.42 108.49-22.02 103.12-22.02 103.12 0ZM119.13-37.5L119.13 0 113.2 0 113.2-37.5 119.13-37.5ZM124.47-13.16L124.47-13.45Q124.47-17.33 126.01-20.45 127.55-23.56 130.33-25.23 133.11-26.9 136.73-26.9L136.73-26.9Q142.07-26.9 145.41-23.46 148.74-20.02 149.01-14.33L149.01-14.33 149.03-12.94Q149.03-9.03 147.53-5.96 146.03-2.88 143.23-1.2 140.44 0.49 136.78 0.49L136.78 0.49Q131.19 0.49 127.83-3.23 124.47-6.96 124.47-13.16L124.47-13.16ZM130.4-12.94L130.4-12.94Q130.4-8.86 132.09-6.56 133.77-4.25 136.78-4.25 139.78-4.25 141.45-6.59 143.12-8.94 143.12-13.45L143.12-13.45Q143.12-17.46 141.4-19.8 139.68-22.14 136.73-22.14L136.73-22.14Q133.82-22.14 132.11-19.84 130.4-17.53 130.4-12.94ZM171.76-26.42L177.25-8.18 181.45-26.42 187.24-26.42 180.04 0 175.15 0 169.49-18.14 163.92 0 159.04 0 151.81-26.42 157.6-26.42 161.87-8.37 167.29-26.42 171.76-26.42Z" opacity="1" transform="matrix(1,0,0,1,0,0)" fill="#1e55b3" class="wordmark-text-0" data-fill-palette-color="primary" id="text-0"></path></svg></g></svg></g><g transform="matrix(1,0,0,1,75.54431999999998,127.45579466080339)"><svg viewBox="0 0 244.43136 18.21802270790378" height="18.21802270790378" width="244.43136"><g transform="matrix(1,0,0,1,0,0)"><svg width="244.43136" viewBox="3.05 -37.5 639.33 47.660000000000004" height="18.21802270790378" data-palette-color="#ff585f"><path d="M30.76-20.09L30.76-15.84Q30.76-10.94 29.06-7.23 27.37-3.52 24.22-1.51 21.07 0.49 16.94 0.49L16.94 0.49Q10.72 0.49 6.88-3.97 3.05-8.42 3.05-15.99L3.05-15.99 3.05-19.65Q3.05-24.51 4.77-28.26 6.49-32.01 9.64-34.02 12.79-36.04 16.89-36.04 21-36.04 24.13-34.06 27.27-32.08 28.98-28.47 30.69-24.85 30.76-20.09L30.76-20.09ZM27.76-15.94L27.76-19.7Q27.76-26.12 24.85-29.76 21.95-33.4 16.89-33.4L16.89-33.4Q11.94-33.4 9-29.75 6.05-26.1 6.05-19.56L6.05-19.56 6.05-15.84Q6.05-9.52 8.98-5.82 11.91-2.12 16.94-2.12L16.94-2.12Q22.05-2.12 24.9-5.77 27.76-9.42 27.76-15.94L27.76-15.94ZM58.88-13.35L58.88-12.94Q58.88-6.76 56.15-3.14 53.42 0.49 48.83 0.49L48.83 0.49Q43.41 0.49 40.52-3.32L40.52-3.32 40.52 10.16 37.62 10.16 37.62-26.42 40.33-26.42 40.48-22.68Q43.33-26.9 48.75-26.9L48.75-26.9Q53.49-26.9 56.19-23.32 58.88-19.73 58.88-13.35L58.88-13.35ZM55.95-13.45L55.95-13.45Q55.95-18.51 53.88-21.44 51.8-24.37 48.09-24.37L48.09-24.37Q45.41-24.37 43.48-23.07 41.55-21.78 40.52-19.31L40.52-19.31 40.52-6.64Q41.57-4.37 43.53-3.17 45.48-1.98 48.14-1.98L48.14-1.98Q51.83-1.98 53.89-4.92 55.95-7.86 55.95-13.45ZM66.96-33.18L69.89-33.18 69.89-26.42 75.36-26.42 75.36-24.02 69.89-24.02 69.89-6.42Q69.89-4.22 70.69-3.15 71.48-2.08 73.33-2.08L73.33-2.08Q74.07-2.08 75.7-2.32L75.7-2.32 75.83 0.07Q74.68 0.49 72.7 0.49L72.7 0.49Q69.7 0.49 68.33-1.26 66.96-3 66.96-6.4L66.96-6.4 66.96-24.02 62.1-24.02 62.1-26.42 66.96-26.42 66.96-33.18ZM84.68-26.42L84.68 0 81.76 0 81.76-26.42 84.68-26.42ZM81.24-34.06L81.24-34.06Q81.24-34.89 81.78-35.46 82.32-36.04 83.24-36.04 84.17-36.04 84.72-35.46 85.27-34.89 85.27-34.06 85.27-33.23 84.72-32.67 84.17-32.1 83.24-32.1 82.32-32.1 81.78-32.67 81.24-33.23 81.24-34.06ZM102.38-1.98L102.38-1.98Q105.43-1.98 107.5-3.7 109.56-5.42 109.73-8.15L109.73-8.15 112.54-8.15Q112.42-5.74 111.03-3.75 109.63-1.76 107.33-0.63 105.02 0.49 102.38 0.49L102.38 0.49Q97.18 0.49 94.14-3.13 91.1-6.74 91.1-12.84L91.1-12.84 91.1-13.72Q91.1-17.63 92.47-20.63 93.84-23.63 96.39-25.27 98.94-26.9 102.36-26.9L102.36-26.9Q106.7-26.9 109.52-24.32 112.34-21.73 112.54-17.5L112.54-17.5 109.73-17.5Q109.54-20.61 107.5-22.51 105.46-24.41 102.36-24.41L102.36-24.41Q98.4-24.41 96.22-21.56 94.03-18.7 94.03-13.55L94.03-13.55 94.03-12.7Q94.03-7.64 96.22-4.81 98.4-1.98 102.38-1.98ZM138.17 0L135.05 0Q134.61-1.25 134.48-3.69L134.48-3.69Q132.95-1.68 130.57-0.6 128.19 0.49 125.52 0.49L125.52 0.49Q121.72 0.49 119.36-1.64 117-3.76 117-7.01L117-7.01Q117-10.86 120.21-13.11 123.43-15.36 129.16-15.36L129.16-15.36 134.46-15.36 134.46-18.36Q134.46-21.19 132.71-22.81 130.97-24.44 127.62-24.44L127.62-24.44Q124.57-24.44 122.57-22.88 120.57-21.31 120.57-19.12L120.57-19.12 117.64-19.14Q117.64-22.29 120.57-24.6 123.5-26.9 127.77-26.9L127.77-26.9Q132.19-26.9 134.74-24.69 137.29-22.49 137.37-18.53L137.37-18.53 137.37-6.03Q137.37-2.2 138.17-0.29L138.17-0.29 138.17 0ZM125.87-2.1L125.87-2.1Q128.8-2.1 131.1-3.52 133.41-4.93 134.46-7.3L134.46-7.3 134.46-13.11 129.24-13.11Q124.87-13.06 122.4-11.51 119.93-9.96 119.93-7.25L119.93-7.25Q119.93-5.03 121.58-3.56 123.23-2.1 125.87-2.1ZM148.42-37.5L148.42 0 145.49 0 145.49-37.5 148.42-37.5ZM167.34-13.11L167.34-13.45Q167.34-19.6 170.08-23.25 172.83-26.9 177.54-26.9L177.54-26.9Q182.89-26.9 185.7-22.68L185.7-22.68 185.7-37.5 188.6-37.5 188.6 0 185.87 0 185.75-3.52Q182.94 0.49 177.49 0.49L177.49 0.49Q172.93 0.49 170.13-3.19 167.34-6.86 167.34-13.11L167.34-13.11ZM170.29-12.94L170.29-12.94Q170.29-7.89 172.32-4.97 174.35-2.05 178.03-2.05L178.03-2.05Q183.43-2.05 185.7-6.81L185.7-6.81 185.7-19.21Q183.43-24.37 178.08-24.37L178.08-24.37Q174.39-24.37 172.34-21.47 170.29-18.58 170.29-12.94ZM216.09 0L212.97 0Q212.53-1.25 212.4-3.69L212.4-3.69Q210.87-1.68 208.49-0.6 206.11 0.49 203.44 0.49L203.44 0.49Q199.64 0.49 197.28-1.64 194.92-3.76 194.92-7.01L194.92-7.01Q194.92-10.86 198.13-13.11 201.34-15.36 207.08-15.36L207.08-15.36 212.38-15.36 212.38-18.36Q212.38-21.19 210.63-22.81 208.89-24.44 205.54-24.44L205.54-24.44Q202.49-24.44 200.49-22.88 198.49-21.31 198.49-19.12L198.49-19.12 195.56-19.14Q195.56-22.29 198.49-24.6 201.42-26.9 205.69-26.9L205.69-26.9Q210.11-26.9 212.66-24.69 215.21-22.49 215.29-18.53L215.29-18.53 215.29-6.03Q215.29-2.2 216.09-0.29L216.09-0.29 216.09 0ZM203.79-2.1L203.79-2.1Q206.72-2.1 209.02-3.52 211.33-4.93 212.38-7.3L212.38-7.3 212.38-13.11 207.16-13.11Q202.79-13.06 200.32-11.51 197.85-9.96 197.85-7.25L197.85-7.25Q197.85-5.03 199.5-3.56 201.15-2.1 203.79-2.1ZM224.68-33.18L227.61-33.18 227.61-26.42 233.08-26.42 233.08-24.02 227.61-24.02 227.61-6.42Q227.61-4.22 228.41-3.15 229.2-2.08 231.05-2.08L231.05-2.08Q231.79-2.08 233.42-2.32L233.42-2.32 233.54 0.07Q232.4 0.49 230.42 0.49L230.42 0.49Q227.42 0.49 226.05-1.26 224.68-3 224.68-6.4L224.68-6.4 224.68-24.02 219.82-24.02 219.82-26.42 224.68-26.42 224.68-33.18ZM258.93 0L255.81 0Q255.37-1.25 255.25-3.69L255.25-3.69Q253.71-1.68 251.33-0.6 248.95 0.49 246.29 0.49L246.29 0.49Q242.48 0.49 240.12-1.64 237.77-3.76 237.77-7.01L237.77-7.01Q237.77-10.86 240.98-13.11 244.19-15.36 249.92-15.36L249.92-15.36 255.22-15.36 255.22-18.36Q255.22-21.19 253.48-22.81 251.73-24.44 248.39-24.44L248.39-24.44Q245.33-24.44 243.33-22.88 241.33-21.31 241.33-19.12L241.33-19.12 238.4-19.14Q238.4-22.29 241.33-24.6 244.26-26.9 248.53-26.9L248.53-26.9Q252.95-26.9 255.5-24.69 258.05-22.49 258.13-18.53L258.13-18.53 258.13-6.03Q258.13-2.2 258.93-0.29L258.93-0.29 258.93 0ZM246.63-2.1L246.63-2.1Q249.56-2.1 251.86-3.52 254.17-4.93 255.22-7.3L255.22-7.3 255.22-13.11 250-13.11Q245.63-13.06 243.16-11.51 240.7-9.96 240.7-7.25L240.7-7.25Q240.7-5.03 242.34-3.56 243.99-2.1 246.63-2.1ZM297.87 0L294.74 0Q294.3-1.25 294.18-3.69L294.18-3.69Q292.64-1.68 290.26-0.6 287.88 0.49 285.22 0.49L285.22 0.49Q281.41 0.49 279.06-1.64 276.7-3.76 276.7-7.01L276.7-7.01Q276.7-10.86 279.91-13.11 283.12-15.36 288.86-15.36L288.86-15.36 294.16-15.36 294.16-18.36Q294.16-21.19 292.41-22.81 290.67-24.44 287.32-24.44L287.32-24.44Q284.27-24.44 282.27-22.88 280.27-21.31 280.27-19.12L280.27-19.12 277.34-19.14Q277.34-22.29 280.27-24.6 283.2-26.9 287.47-26.9L287.47-26.9Q291.89-26.9 294.44-24.69 296.99-22.49 297.06-18.53L297.06-18.53 297.06-6.03Q297.06-2.2 297.87-0.29L297.87-0.29 297.87 0ZM285.56-2.1L285.56-2.1Q288.49-2.1 290.8-3.52 293.11-4.93 294.16-7.3L294.16-7.3 294.16-13.11 288.93-13.11Q284.56-13.06 282.1-11.51 279.63-9.96 279.63-7.25L279.63-7.25Q279.63-5.03 281.28-3.56 282.93-2.1 285.56-2.1ZM317.13-26.59L317.05-23.93Q316.13-24.1 315.08-24.1L315.08-24.1Q312.34-24.1 310.45-22.57 308.56-21.04 307.75-18.14L307.75-18.14 307.75 0 304.85 0 304.85-26.42 307.7-26.42 307.75-22.22Q310.07-26.9 315.2-26.9L315.2-26.9Q316.42-26.9 317.13-26.59L317.13-26.59ZM331.43 0.49L331.43 0.49Q328.06 0.49 325.34-1.17 322.62-2.83 321.11-5.8 319.59-8.76 319.59-12.45L319.59-12.45 319.59-13.5Q319.59-17.31 321.07-20.36 322.55-23.41 325.18-25.16 327.82-26.9 330.9-26.9L330.9-26.9Q335.7-26.9 338.52-23.62 341.34-20.34 341.34-14.65L341.34-14.65 341.34-13.01 322.5-13.01 322.5-12.45Q322.5-7.96 325.07-4.97 327.65-1.98 331.55-1.98L331.55-1.98Q333.9-1.98 335.69-2.83 337.49-3.69 338.95-5.57L338.95-5.57 340.78-4.17Q337.56 0.49 331.43 0.49ZM330.9-24.41L330.9-24.41Q327.6-24.41 325.34-22 323.08-19.58 322.59-15.5L322.59-15.5 338.44-15.5 338.44-15.82Q338.32-19.63 336.27-22.02 334.22-24.41 330.9-24.41ZM366.83 0L363.71 0Q363.27-1.25 363.14-3.69L363.14-3.69Q361.61-1.68 359.23-0.6 356.84 0.49 354.18 0.49L354.18 0.49Q350.38 0.49 348.02-1.64 345.66-3.76 345.66-7.01L345.66-7.01Q345.66-10.86 348.87-13.11 352.08-15.36 357.82-15.36L357.82-15.36 363.12-15.36 363.12-18.36Q363.12-21.19 361.37-22.81 359.63-24.44 356.28-24.44L356.28-24.44Q353.23-24.44 351.23-22.88 349.23-21.31 349.23-19.12L349.23-19.12 346.3-19.14Q346.3-22.29 349.23-24.6 352.16-26.9 356.43-26.9L356.43-26.9Q360.85-26.9 363.4-24.69 365.95-22.49 366.02-18.53L366.02-18.53 366.02-6.03Q366.02-2.2 366.83-0.29L366.83-0.29 366.83 0ZM354.53-2.1L354.53-2.1Q357.46-2.1 359.76-3.52 362.07-4.93 363.12-7.3L363.12-7.3 363.12-13.11 357.89-13.11Q353.52-13.06 351.06-11.51 348.59-9.96 348.59-7.25L348.59-7.25Q348.59-5.03 350.24-3.56 351.89-2.1 354.53-2.1ZM395.73-1.98L395.73-1.98Q398.78-1.98 400.85-3.7 402.91-5.42 403.08-8.15L403.08-8.15 405.89-8.15Q405.77-5.74 404.37-3.75 402.98-1.76 400.68-0.63 398.37 0.49 395.73 0.49L395.73 0.49Q390.53 0.49 387.49-3.13 384.45-6.74 384.45-12.84L384.45-12.84 384.45-13.72Q384.45-17.63 385.82-20.63 387.19-23.63 389.74-25.27 392.29-26.9 395.71-26.9L395.71-26.9Q400.05-26.9 402.87-24.32 405.69-21.73 405.89-17.5L405.89-17.5 403.08-17.5Q402.88-20.61 400.85-22.51 398.81-24.41 395.71-24.41L395.71-24.41Q391.75-24.41 389.57-21.56 387.38-18.7 387.38-13.55L387.38-13.55 387.38-12.7Q387.38-7.64 389.57-4.81 391.75-1.98 395.73-1.98ZM431.52 0L428.39 0Q427.96-1.25 427.83-3.69L427.83-3.69Q426.3-1.68 423.91-0.6 421.53 0.49 418.87 0.49L418.87 0.49Q415.06 0.49 412.71-1.64 410.35-3.76 410.35-7.01L410.35-7.01Q410.35-10.86 413.56-13.11 416.77-15.36 422.51-15.36L422.51-15.36 427.81-15.36 427.81-18.36Q427.81-21.19 426.06-22.81 424.32-24.44 420.97-24.44L420.97-24.44Q417.92-24.44 415.92-22.88 413.92-21.31 413.92-19.12L413.92-19.12 410.99-19.14Q410.99-22.29 413.92-24.6 416.85-26.9 421.12-26.9L421.12-26.9Q425.54-26.9 428.09-24.69 430.64-22.49 430.71-18.53L430.71-18.53 430.71-6.03Q430.71-2.2 431.52-0.29L431.52-0.29 431.52 0ZM419.22-2.1L419.22-2.1Q422.14-2.1 424.45-3.52 426.76-4.93 427.81-7.3L427.81-7.3 427.81-13.11 422.58-13.11Q418.21-13.06 415.75-11.51 413.28-9.96 413.28-7.25L413.28-7.25Q413.28-5.03 414.93-3.56 416.58-2.1 419.22-2.1ZM441.77-37.5L441.77 0 438.84 0 438.84-37.5 441.77-37.5ZM459.47-1.98L459.47-1.98Q462.52-1.98 464.58-3.7 466.65-5.42 466.82-8.15L466.82-8.15 469.63-8.15Q469.5-5.74 468.11-3.75 466.72-1.76 464.41-0.63 462.11 0.49 459.47 0.49L459.47 0.49Q454.27 0.49 451.23-3.13 448.19-6.74 448.19-12.84L448.19-12.84 448.19-13.72Q448.19-17.63 449.56-20.63 450.92-23.63 453.48-25.27 456.03-26.9 459.44-26.9L459.44-26.9Q463.79-26.9 466.61-24.32 469.43-21.73 469.63-17.5L469.63-17.5 466.82-17.5Q466.62-20.61 464.58-22.51 462.55-24.41 459.44-24.41L459.44-24.41Q455.49-24.41 453.3-21.56 451.12-18.7 451.12-13.55L451.12-13.55 451.12-12.7Q451.12-7.64 453.3-4.81 455.49-1.98 459.47-1.98ZM492.5 0L492.45-3.34Q489.81 0.49 484.03 0.49L484.03 0.49Q479.8 0.49 477.61-1.97 475.41-4.42 475.36-9.23L475.36-9.23 475.36-26.42 478.27-26.42 478.27-9.59Q478.27-2.05 484.37-2.05L484.37-2.05Q490.72-2.05 492.4-7.3L492.4-7.3 492.4-26.42 495.33-26.42 495.33 0 492.5 0ZM506.19-37.5L506.19 0 503.26 0 503.26-37.5 506.19-37.5ZM533.92 0L530.8 0Q530.36-1.25 530.24-3.69L530.24-3.69Q528.7-1.68 526.32-0.6 523.94 0.49 521.28 0.49L521.28 0.49Q517.47 0.49 515.11-1.64 512.76-3.76 512.76-7.01L512.76-7.01Q512.76-10.86 515.97-13.11 519.18-15.36 524.92-15.36L524.92-15.36 530.21-15.36 530.21-18.36Q530.21-21.19 528.47-22.81 526.72-24.44 523.38-24.44L523.38-24.44Q520.33-24.44 518.32-22.88 516.32-21.31 516.32-19.12L516.32-19.12 513.39-19.14Q513.39-22.29 516.32-24.6 519.25-26.9 523.52-26.9L523.52-26.9Q527.94-26.9 530.49-24.69 533.05-22.49 533.12-18.53L533.12-18.53 533.12-6.03Q533.12-2.2 533.92-0.29L533.92-0.29 533.92 0ZM521.62-2.1L521.62-2.1Q524.55-2.1 526.86-3.52 529.16-4.93 530.21-7.3L530.21-7.3 530.21-13.11 524.99-13.11Q520.62-13.06 518.15-11.51 515.69-9.96 515.69-7.25L515.69-7.25Q515.69-5.03 517.34-3.56 518.98-2.1 521.62-2.1ZM542.52-33.18L545.45-33.18 545.45-26.42 550.91-26.42 550.91-24.02 545.45-24.02 545.45-6.42Q545.45-4.22 546.24-3.15 547.03-2.08 548.89-2.08L548.89-2.08Q549.62-2.08 551.26-2.32L551.26-2.32 551.38 0.07Q550.23 0.49 548.25 0.49L548.25 0.49Q545.25 0.49 543.88-1.26 542.52-3 542.52-6.4L542.52-6.4 542.52-24.02 537.66-24.02 537.66-26.42 542.52-26.42 542.52-33.18ZM560.24-26.42L560.24 0 557.31 0 557.31-26.42 560.24-26.42ZM556.8-34.06L556.8-34.06Q556.8-34.89 557.33-35.46 557.87-36.04 558.8-36.04 559.73-36.04 560.27-35.46 560.82-34.89 560.82-34.06 560.82-33.23 560.27-32.67 559.73-32.1 558.8-32.1 557.87-32.1 557.33-32.67 556.8-33.23 556.8-34.06ZM566.56-13.01L566.56-13.6Q566.56-17.41 568.04-20.46 569.51-23.51 572.21-25.21 574.91-26.9 578.33-26.9L578.33-26.9Q583.6-26.9 586.87-23.21 590.14-19.51 590.14-13.4L590.14-13.4 590.14-12.79Q590.14-8.96 588.67-5.9 587.19-2.83 584.5-1.17 581.82 0.49 578.37 0.49L578.37 0.49Q573.13 0.49 569.84-3.21 566.56-6.91 566.56-13.01L566.56-13.01ZM569.49-13.33L569.49-12.79Q569.49-8.06 571.94-5.02 574.4-1.98 578.37-1.98L578.37-1.98Q582.33-1.98 584.78-5.02 587.24-8.06 587.24-13.04L587.24-13.04 587.24-13.6Q587.24-16.63 586.11-19.14 584.99-21.66 582.96-23.03 580.94-24.41 578.33-24.41L578.33-24.41Q574.42-24.41 571.95-21.35 569.49-18.29 569.49-13.33L569.49-13.33ZM596.17-26.42L598.95-26.42 599.05-21.9Q600.54-24.34 602.76-25.62 604.98-26.9 607.67-26.9L607.67-26.9Q611.92-26.9 613.99-24.51 616.07-22.12 616.09-17.33L616.09-17.33 616.09 0 613.19 0 613.19-17.36Q613.16-20.9 611.69-22.63 610.21-24.37 606.96-24.37L606.96-24.37Q604.25-24.37 602.16-22.67 600.08-20.97 599.08-18.09L599.08-18.09 599.08 0 596.17 0 596.17-26.42ZM639.45-6.71L639.45-6.71Q639.45-8.89 637.71-10.21 635.96-11.52 632.45-12.27 628.93-13.01 626.99-13.98 625.05-14.94 624.11-16.33 623.17-17.72 623.17-19.7L623.17-19.7Q623.17-22.83 625.78-24.87 628.39-26.9 632.47-26.9L632.47-26.9Q636.89-26.9 639.56-24.72 642.24-22.53 642.24-19.02L642.24-19.02 639.31-19.02Q639.31-21.34 637.37-22.88 635.43-24.41 632.47-24.41L632.47-24.41Q629.59-24.41 627.84-23.13 626.1-21.85 626.1-19.8L626.1-19.8Q626.1-17.82 627.55-16.74 629-15.65 632.85-14.75 636.7-13.84 638.61-12.82 640.53-11.79 641.46-10.35 642.38-8.91 642.38-6.86L642.38-6.86Q642.38-3.52 639.69-1.51 636.99 0.49 632.64 0.49L632.64 0.49Q628.03 0.49 625.16-1.75 622.29-3.98 622.29-7.4L622.29-7.4 625.22-7.4Q625.39-4.83 627.38-3.41 629.37-1.98 632.64-1.98L632.64-1.98Q635.69-1.98 637.57-3.32 639.45-4.66 639.45-6.71Z" opacity="1" transform="matrix(1,0,0,1,0,0)" fill="#ff585f" class="slogan-text-1" data-fill-palette-color="secondary" id="text-1"></path></svg></g></svg></g></svg></g></svg></g><g transform="matrix(1,0,0,1,97.09939219822334,0)"><svg viewBox="0 0 201.3212156035533 201.32121560355333" height="201.32121560355333" width="201.3212156035533"><g><svg></svg></g><g id="icon-0"><svg viewBox="0 0 201.3212156035533 201.32121560355333" height="201.32121560355333" width="201.3212156035533"><g><path transform="scale(2.01321,2.01321)" d="M30 100c-16.569 0-30-13.431-30-30v-40c0-16.569 13.431-30 30-30h40c16.569 0 30 13.431 30 30v40c0 16.569-13.431 30-30 30z" fill="#ff585f" fill-rule="nonzero" stroke="none" stroke-width="1" stroke-linecap="butt" stroke-linejoin="miter" stroke-miterlimit="10" stroke-dasharray="" stroke-dashoffset="0" font-family="none" font-weight="none" font-size="none" text-anchor="none" style="mix-blend-mode: normal" data-fill-palette-color="accent"></path></g><g transform="matrix(1,0,0,1,40.264243120710645,41.68536074579187)"><svg viewBox="0 0 120.79272936213201 117.95049411196959" height="117.95049411196959" width="120.79272936213201"><g><svg xmlns="http://www.w3.org/2000/svg" data-name="Layer 1 copy 2" viewBox="6.999999751047742 9.00003733622477 85.00000024895226 82.9999626784201" x="0" y="0" height="117.95049411196959" width="120.79272936213201" class="icon-cg-0" data-fill-palette-color="quaternary" id="cg-0"><path d="M90 92H9a2 2 0 0 1-2-2L7 65a2.003 2.003 0 0 1 0.555-1.383l22-23a2.001 2.001 0 0 1 1.033-0.574l18.503-3.896 19.614-16.67a2.011 2.011 0 0 1 0.4-0.266l20-10A2 2 0 0 1 92 11V90A2 2 0 0 1 90 92ZM11 88H88V14.236L71.111 22.681 51.295 39.523a1.999 1.999 0 0 1-0.883 0.434l-18.394 3.873L11 65.803Z" fill="#ffffff" data-fill-palette-color="quaternary"></path><path d="M90 92H9a2 2 0 0 1-2-2L7 78a1.998 1.998 0 0 1 0.586-1.414l22-22A2 2 0 0 1 31 54H49.446L68.971 42.285a1.978 1.978 0 0 1 0.454-0.201l20-6A2.001 2.001 0 0 1 92 38V90A2 2 0 0 1 90 92ZM11 88H88V40.688L70.814 45.844 51.029 57.715A1.999 1.999 0 0 1 50 58H31.829L11 78.828Z" fill="#ffffff" data-fill-palette-color="quaternary"></path><path d="M90 92H9a2 2 0 0 1-1.381-3.446l22-21a1.991 1.991 0 0 1 1.793-0.511L49.774 70.908 69.179 62.176a2.018 2.018 0 0 1 0.622-0.166l20-2A2.001 2.001 0 0 1 92 62V90A2 2 0 0 1 90 92ZM13.992 88H88V64.21L70.523 65.958 50.821 74.824a2.018 2.018 0 0 1-1.233 0.133l-17.969-3.783Z" fill="#ffffff" data-fill-palette-color="quaternary"></path></svg></g></svg></g></svg></g></svg></g><g></g></svg></g><defs></defs></svg><rect width="263.29826511891014" height="247.2" fill="none" stroke="none" visibility="hidden"></rect></g></svg></g></svg>